<?xml version="1.0" standalone="no"?>
<!DOCTYPE svg PUBLIC "-//W3C//DTD SVG 20010904//EN"
 "http://www.w3.org/TR/2001/REC-SVG-20010904/DTD/svg10.dtd">
<svg version="1.0" xmlns="http://www.w3.org/2000/svg"
 width="512.000000pt" height="512.000000pt" viewBox="0 0 512.000000 512.000000"
 preserveAspectRatio="xMidYMid meet">

<g transform="translate(0.000000,512.000000) scale(0.100000,-0.100000)"
fill="#000000" stroke="none">
<path d="M1499 5105 c-62 -20 -136 -87 -165 -150 -22 -46 -24 -63 -24 -217 0
-155 2 -170 20 -188 12 -12 33 -20 55 -20 22 0 43 8 55 20 18 18 20 33 20 173
0 101 4 160 13 177 18 36 74 70 116 70 84 0 66 31 506 -849 250 -501 412 -814
424 -821 30 -16 76 -12 93 8 8 9 197 378 418 820 294 586 410 808 429 820 58
39 157 13 188 -49 10 -19 13 -250 13 -1022 0 -1096 3 -1043 -59 -1080 -36 -21
-93 -22 -131 -2 -61 32 -60 21 -60 624 0 356 -4 559 -10 577 -19 49 -66 68
-111 44 -12 -7 -138 -249 -323 -618 -255 -508 -309 -610 -334 -624 -41 -25
-113 -23 -145 2 -17 13 -130 228 -327 618 -165 328 -310 605 -322 615 -27 23
-59 22 -92 -4 l-26 -20 0 -552 c0 -346 -4 -566 -10 -589 -31 -110 -182 -121
-235 -18 -13 25 -15 127 -15 700 0 454 -3 678 -11 691 -23 43 -106 42 -129 -1
-6 -12 -10 -274 -10 -698 0 -760 -1 -744 70 -824 110 -125 327 -120 427 10 60
79 63 103 64 536 l0 391 230 -458 c248 -495 264 -520 356 -551 59 -20 147 -20
206 0 99 34 109 49 357 544 l228 455 4 -405 c3 -397 3 -406 26 -451 50 -102
144 -163 252 -163 115 0 213 63 261 168 18 39 19 85 19 1081 0 1169 5 1079
-75 1160 -59 58 -115 80 -210 80 -94 0 -140 -20 -198 -84 -25 -28 -152 -271
-400 -766 -199 -399 -364 -725 -367 -725 -3 0 -169 329 -370 731 -244 487
-376 742 -398 765 -71 73 -191 102 -293 69z"/>
<path d="M1267 2390 c-264 -45 -495 -208 -602 -425 -92 -185 -101 -424 -23
-608 75 -178 239 -333 402 -382 32 -10 40 -17 38 -31 -12 -64 -5 -151 15 -190
25 -47 83 -102 125 -116 l28 -10 0 -289 0 -290 25 -24 c30 -30 64 -32 99 -4
l26 20 0 290 0 289 1160 0 1160 0 0 -285 0 -286 25 -24 c31 -32 69 -32 100 0
l25 24 0 290 0 289 34 12 c39 13 99 67 123 113 18 34 24 145 10 183 -7 19 -1
24 55 44 192 69 334 218 404 425 39 115 45 295 15 415 -78 315 -338 531 -688
575 -47 6 -55 4 -78 -19 -30 -30 -33 -78 -6 -105 11 -11 41 -22 68 -26 80 -11
191 -44 251 -74 129 -65 244 -196 292 -332 31 -89 39 -268 15 -359 -82 -318
-431 -478 -733 -335 -139 66 -230 186 -253 337 -14 89 4 175 52 250 121 188
364 232 527 93 64 -54 94 -150 72 -230 -16 -58 -78 -128 -132 -150 -55 -22
-99 -13 -164 31 -39 26 -58 33 -77 29 -64 -16 -80 -85 -31 -136 81 -85 224
-108 339 -56 79 36 156 113 192 191 24 53 28 73 28 151 0 82 -3 97 -33 157
-57 117 -176 203 -322 234 -97 20 -2444 20 -2541 0 -281 -60 -432 -322 -319
-552 85 -174 288 -256 442 -181 61 30 118 86 118 117 0 10 -11 31 -23 46 -31
36 -75 36 -117 1 -17 -15 -48 -32 -68 -38 -99 -29 -214 60 -237 183 -9 49 16
133 54 178 57 70 193 119 290 105 115 -16 236 -109 289 -223 22 -47 26 -71 26
-137 0 -131 -44 -234 -137 -323 -93 -87 -197 -125 -342 -125 -152 0 -278 50
-378 150 -100 100 -147 222 -147 379 0 179 61 325 183 441 81 77 158 121 267
155 l75 23 1060 2 c583 2 1070 5 1082 8 35 8 53 34 53 75 0 75 81 70 -1095 69
-577 -1 -1072 -5 -1098 -9z m2059 -540 c-156 -211 -131 -525 57 -717 l41 -43
-863 0 -863 0 52 56 c88 98 138 219 147 359 8 137 -22 237 -108 353 l-40 52
811 0 810 0 -44 -60z m527 -921 c52 -24 60 -87 18 -130 l-29 -29 -1281 0
-1280 0 -27 24 c-21 18 -28 32 -28 61 0 29 7 43 28 61 l27 24 1274 0 c912 0
1281 -3 1298 -11z"/>
<path d="M1673 416 c-28 -24 -28 -25 -31 -167 -2 -78 -1 -157 3 -176 16 -86
114 -99 145 -19 5 15 10 95 10 177 l0 151 -29 29 c-36 35 -61 37 -98 5z"/>
<path d="M2093 416 l-28 -24 0 -170 c0 -167 1 -171 24 -196 41 -44 100 -31
120 25 6 18 11 98 11 181 l0 150 -29 29 c-36 35 -61 37 -98 5z"/>
<path d="M2513 416 l-28 -24 0 -170 c0 -167 1 -171 24 -196 41 -44 100 -31
120 25 14 42 14 311 0 342 -11 24 -47 47 -74 47 -8 0 -27 -11 -42 -24z"/>
<path d="M2933 416 l-28 -24 0 -172 0 -172 28 -24 c44 -37 88 -31 112 17 19
35 21 314 4 352 -11 24 -47 47 -74 47 -8 0 -27 -11 -42 -24z"/>
<path d="M3356 419 l-26 -20 0 -179 0 -179 26 -20 c43 -34 86 -26 109 20 19
35 21 314 4 352 -11 24 -47 47 -73 47 -7 0 -25 -9 -40 -21z"/>
</g>
</svg>
